REM DIRINDEX 1\2,1\3,1\4,1\5
REM DIRNAME cjc046,folder01,folder02,folder03,folder04
TITLE ""
FILE "165.mp3" MP3
  TRACK 01 AUDIO
    TITLE "0:"
    INDEX 01 00:00:00
  TRACK 02 AUDIO
    TITLE "2:cjc046_4876"
    INDEX 01 00:00:13
  TRACK 03 AUDIO
    TITLE "0:"
    INDEX 01 00:01:21
  TRACK 04 AUDIO
    TITLE "3:cjc046_4877"
    INDEX 01 00:01:42
  TRACK 05 AUDIO
    TITLE "0:"
    INDEX 01 00:03:00
  TRACK 06 AUDIO
    TITLE "4:cjc046_4878"
    INDEX 01 00:03:02
  TRACK 07 AUDIO
    TITLE "0:"
    INDEX 01 00:04:09
  TRACK 08 AUDIO
    TITLE "2:cjc046_4879"
    INDEX 01 00:05:20
  TRACK 09 AUDIO
    TITLE "0:"
    INDEX 01 00:06:31
  TRACK 10 AUDIO
    TITLE "3:cjc046_4880"
    INDEX 01 00:06:47
  TRACK 11 AUDIO
    TITLE "0:"
    INDEX 01 00:07:60
  TRACK 12 AUDIO
    TITLE "4:cjc046_4881"
    INDEX 01 00:07:74
  TRACK 13 AUDIO
    TITLE "0:"
    INDEX 01 00:09:12
  TRACK 14 AUDIO
    TITLE "2:cjc046_4882"
    INDEX 01 00:10:18
  TRACK 15 AUDIO
    TITLE "0:"
    INDEX 01 00:11:27
  TRACK 16 AUDIO
    TITLE "3:cjc046_4883"
    INDEX 01 00:11:54
  TRACK 17 AUDIO
    TITLE "0:"
    INDEX 01 00:12:69
  TRACK 18 AUDIO
    TITLE "4:cjc046_4884"
    INDEX 01 00:12:71
  TRACK 19 AUDIO
    TITLE "0:"
    INDEX 01 00:14:06
  TRACK 20 AUDIO
    TITLE "2:cjc046_4885"
    INDEX 01 00:15:19
  TRACK 21 AUDIO
    TITLE "0:"
    INDEX 01 00:16:24
  TRACK 22 AUDIO
    TITLE "3:cjc046_4886"
    INDEX 01 00:16:44
  TRACK 23 AUDIO
    TITLE "0:"
    INDEX 01 00:17:35
  TRACK 24 AUDIO
    TITLE "4:cjc046_4887"
    INDEX 01 00:17:55
  TRACK 25 AUDIO
    TITLE "0:"
    INDEX 01 00:18:60
  TRACK 26 AUDIO
    TITLE "2:cjc046_4888"
    INDEX 01 00:19:71
  TRACK 27 AUDIO
    TITLE "0:"
    INDEX 01 00:21:02
  TRACK 28 AUDIO
    TITLE "3:cjc046_4889"
    INDEX 01 00:21:23
  TRACK 29 AUDIO
    TITLE "0:"
    INDEX 01 00:22:36
  TRACK 30 AUDIO
    TITLE "4:cjc046_4890"
    INDEX 01 00:22:54
  TRACK 31 AUDIO
    TITLE "0:"
    INDEX 01 00:23:61
  TRACK 32 AUDIO
    TITLE "2:cjc046_4891"
    INDEX 01 00:24:71
  TRACK 33 AUDIO
    TITLE "0:"
    INDEX 01 00:26:03
  TRACK 34 AUDIO
    TITLE "3:cjc046_4892"
    INDEX 01 00:26:26
  TRACK 35 AUDIO
    TITLE "0:"
    INDEX 01 00:27:47
  TRACK 36 AUDIO
    TITLE "4:cjc046_4893"
    INDEX 01 00:27:63
  TRACK 37 AUDIO
    TITLE "0:"
    INDEX 01 00:28:72
  TRACK 38 AUDIO
    TITLE "2:cjc046_4894"
    INDEX 01 00:30:08
  TRACK 39 AUDIO
    TITLE "0:"
    INDEX 01 00:31:37
  TRACK 40 AUDIO
    TITLE "3:cjc046_4895"
    INDEX 01 00:31:57
  TRACK 41 AUDIO
    TITLE "0:"
    INDEX 01 00:33:42
  TRACK 42 AUDIO
    TITLE "4:cjc046_4896"
    INDEX 01 00:33:52
  TRACK 43 AUDIO
    TITLE "0:"
    INDEX 01 00:35:06
  TRACK 44 AUDIO
    TITLE "2:cjc046_4897"
    INDEX 01 00:36:13
  TRACK 45 AUDIO
    TITLE "0:"
    INDEX 01 00:37:24
  TRACK 46 AUDIO
    TITLE "3:cjc046_4898"
    INDEX 01 00:37:48
  TRACK 47 AUDIO
    TITLE "0:"
    INDEX 01 00:39:51
  TRACK 48 AUDIO
    TITLE "4:cjc046_4899"
    INDEX 01 00:39:66
  TRACK 49 AUDIO
    TITLE "0:"
    INDEX 01 00:41:02
  TRACK 50 AUDIO
    TITLE "2:cjc046_4900"
    INDEX 01 00:42:12
  TRACK 51 AUDIO
    TITLE "0:"
    INDEX 01 00:43:21
  TRACK 52 AUDIO
    TITLE "3:cjc046_4901"
    INDEX 01 00:43:44
  TRACK 53 AUDIO
    TITLE "0:"
    INDEX 01 00:44:60
  TRACK 54 AUDIO
    TITLE "4:cjc046_4902"
    INDEX 01 00:45:00
  TRACK 55 AUDIO
    TITLE "0:"
    INDEX 01 00:46:13
  TRACK 56 AUDIO
    TITLE "2:cjc046_4903"
    INDEX 01 00:47:21
  TRACK 57 AUDIO
    TITLE "0:"
    INDEX 01 00:48:32
  TRACK 58 AUDIO
    TITLE "3:cjc046_4904"
    INDEX 01 00:48:51
  TRACK 59 AUDIO
    TITLE "0:"
    INDEX 01 00:49:53
  TRACK 60 AUDIO
    TITLE "4:cjc046_4905"
    INDEX 01 00:49:74
  TRACK 61 AUDIO
    TITLE "0:"
    INDEX 01 00:51:15
  TRACK 62 AUDIO
    TITLE "2:cjc046_4906"
    INDEX 01 00:52:24
  TRACK 63 AUDIO
    TITLE "0:"
    INDEX 01 00:53:33
  TRACK 64 AUDIO
    TITLE "3:cjc046_4907"
    INDEX 01 00:53:51
  TRACK 65 AUDIO
    TITLE "0:"
    INDEX 01 00:55:03
  TRACK 66 AUDIO
    TITLE "4:cjc046_4908"
    INDEX 01 00:55:18
  TRACK 67 AUDIO
    TITLE "0:"
    INDEX 01 00:56:29
  TRACK 68 AUDIO
    TITLE "2:cjc046_4909"
    INDEX 01 00:57:39
  TRACK 69 AUDIO
    TITLE "0:"
    INDEX 01 00:58:42
  TRACK 70 AUDIO
    TITLE "3:cjc046_4910"
    INDEX 01 00:58:64
  TRACK 71 AUDIO
    TITLE "0:"
    INDEX 01 01:00:08
  TRACK 72 AUDIO
    TITLE "4:cjc046_4911"
    INDEX 01 01:00:23
  TRACK 73 AUDIO
    TITLE "0:"
    INDEX 01 01:01:27
  TRACK 74 AUDIO
    TITLE "2:cjc046_4912"
    INDEX 01 01:02:36
  TRACK 75 AUDIO
    TITLE "0:"
    INDEX 01 01:03:35
  TRACK 76 AUDIO
    TITLE "3:cjc046_4913"
    INDEX 01 01:03:57
  TRACK 77 AUDIO
    TITLE "0:"
    INDEX 01 01:04:62
  TRACK 78 AUDIO
    TITLE "4:cjc046_4914"
    INDEX 01 01:05:07
  TRACK 79 AUDIO
    TITLE "0:"
    INDEX 01 01:06:04
  TRACK 80 AUDIO
    TITLE "2:cjc046_4915"
    INDEX 01 01:07:14
  TRACK 81 AUDIO
    TITLE "0:"
    INDEX 01 01:08:23
  TRACK 82 AUDIO
    TITLE "3:cjc046_4916"
    INDEX 01 01:08:46
  TRACK 83 AUDIO
    TITLE "0:"
    INDEX 01 01:10:18
  TRACK 84 AUDIO
    TITLE "4:cjc046_4917"
    INDEX 01 01:10:33
  TRACK 85 AUDIO
    TITLE "0:"
    INDEX 01 01:11:41
  TRACK 86 AUDIO
    TITLE "2:cjc046_4918"
    INDEX 01 01:12:54
  TRACK 87 AUDIO
    TITLE "0:"
    INDEX 01 01:14:02
  TRACK 88 AUDIO
    TITLE "3:cjc046_4919"
    INDEX 01 01:14:19
  TRACK 89 AUDIO
    TITLE "0:"
    INDEX 01 01:15:39
  TRACK 90 AUDIO
    TITLE "4:cjc046_4920"
    INDEX 01 01:15:58
  TRACK 91 AUDIO
    TITLE "0:"
    INDEX 01 01:17:08
  TRACK 92 AUDIO
    TITLE "2:cjc046_4921"
    INDEX 01 01:18:17
  TRACK 93 AUDIO
    TITLE "0:"
    INDEX 01 01:19:21
  TRACK 94 AUDIO
    TITLE "3:cjc046_4922"
    INDEX 01 01:19:38
  TRACK 95 AUDIO
    TITLE "0:"
    INDEX 01 01:20:55
  TRACK 96 AUDIO
    TITLE "4:cjc046_4923"
    INDEX 01 01:20:65
  TRACK 97 AUDIO
    TITLE "0:"
    INDEX 01 01:21:69
  TRACK 98 AUDIO
    TITLE "2:cjc046_4924"
    INDEX 01 01:23:01
  TRACK 99 AUDIO
    TITLE "0:"
    INDEX 01 01:24:18
  TRACK 100 AUDIO
    TITLE "3:cjc046_4925"
    INDEX 01 01:24:36
  TRACK 101 AUDIO
    TITLE "0:"
    INDEX 01 01:25:55
  TRACK 102 AUDIO
    TITLE "4:cjc046_4926"
    INDEX 01 01:25:70
  TRACK 103 AUDIO
    TITLE "0:"
    INDEX 01 01:27:12
